<?xml version="1.0" encoding="utf-8"?>
<!-- Generator: Adobe Illustrator 22.0.1, SVG Export Plug-In . SVG Version: 6.00 Build 0)  -->
<svg version="1.1" baseProfile="tiny" id="Layer_1" xmlns="http://www.w3.org/2000/svg" xmlns:xlink="http://www.w3.org/1999/xlink"
	 x="0px" y="0px" viewBox="0 0 790 165.5" xml:space="preserve">
<g>
	<g>
		<path fill="#DA291C" d="M99.2,89c1.8-2.4,4.3-4.3,6.9-5.5c3-1.3,9.4-2.1,16.1-2.9c6.3-0.8,12.9-1.6,15.4-2.8
			c5-2.4,8.3-6.1,8.3-9.9l0-20.4c0-0.2-0.1-0.2-0.2-0.1c-1.7,2-4,3.8-6.9,5.2c-2.9,1.4-9.4,2.2-16.2,3c-6.2,0.8-12.7,1.5-15.3,2.7
			c-4.6,2.1-8.2,6.4-8.2,10.5L99,89C99,89.2,99.1,89.2,99.2,89z"/>
		<path fill="#DA291C" d="M99.2,117.9c1.8-2.4,4.3-4.3,6.9-5.5c3-1.3,9.4-2.1,16.1-2.9c6.3-0.8,12.9-1.6,15.4-2.8
			c5-2.4,8.3-6.1,8.3-9.9l0-20.4c0-0.2-0.1-0.2-0.2-0.1c-1.7,2-4,3.8-6.9,5.2c-2.9,1.4-9.4,2.2-16.2,3c-6.2,0.8-12.7,1.5-15.3,2.7
			c-4.6,2.1-8.2,6.4-8.2,10.5l0,20.1C99,118,99.1,118.1,99.2,117.9z"/>
		<g>
			<path fill="#DA291C" d="M94.6,89c-1.8-2.4-4.3-4.3-6.9-5.5c-3-1.3-9.4-2.1-16.1-2.9c-6.3-0.8-12.9-1.6-15.4-2.8
				c-5-2.4-8.3-6.1-8.3-9.9l0-20.4c0-0.2,0.1-0.2,0.2-0.1c1.7,2,4,3.8,6.9,5.2c2.9,1.4,9.4,2.2,16.2,3c6.2,0.8,12.7,1.5,15.3,2.7
				c4.6,2.1,8.2,6.4,8.2,10.5l0,20.1C94.8,89.2,94.7,89.2,94.6,89z"/>
			<path fill="#DA291C" d="M94.6,117.9c-1.8-2.4-4.3-4.3-6.9-5.5c-3-1.3-9.4-2.1-16.1-2.9c-6.3-0.8-12.9-1.6-15.4-2.8
				c-5-2.4-8.3-6.1-8.3-9.9l0-20.4c0-0.2,0.1-0.2,0.2-0.1c1.7,2,4,3.8,6.9,5.2c2.9,1.4,9.4,2.2,16.2,3c6.2,0.8,12.7,1.5,15.3,2.7
				c4.6,2.1,8.2,6.4,8.2,10.5l0,20.1C94.8,118,94.7,118.1,94.6,117.9z"/>
		</g>
	</g>
	<g>
		<g>
			<g>
				<path d="M226.7,78.2h-15.3v0.7c4.6,1.7,5.4,4.1,5.4,8.6V99c-1.3,0.4-4.8,1.2-7.6,1.2c-10.5,0-18.8-7.8-18.8-22.8
					c0-13.7,7.9-22.1,18.1-22.1c6.1,0,11.9,3.4,16.6,11h0.7V55.2c-3.1-1.1-9.9-2.8-17-2.8C196,52.4,179,61,179,78.3
					c0,16.5,13.9,25.3,27.5,25.3c7,0,15.1-1.8,20.1-3.3V78.2z"/>
			</g>
		</g>
		<path d="M420.6,102.5v-0.7c3.8-1.6,4.6-3.5,4.6-9V62c0-6.3-0.7-7.8-5.3-9.7v-0.7c5.1-0.4,11.3-1.5,15.3-2.8h0.3v44
			c0,5.5,0.7,7.4,4.6,9v0.7H420.6z"/>
		<path d="M314.1,102.5v-0.7c3.8-1.6,4.6-3.5,4.6-9V77.3c0-4.6-3.3-6.8-6.8-6.8c-2.1,0-4.6,0.8-6.2,1.6v20.8c0,5.5,0.7,7.4,4.6,9
			v0.7h-19.1v-0.7c3.8-1.6,4.6-3.5,4.6-9V78.5c0-6.3-0.7-7.8-5.3-9.7v-0.7c5.1-0.4,10.9-1.5,14.9-2.8h0.3v4.9
			c2.3-2.3,7.8-4.9,12.4-4.9c5.6,0,10.7,3.1,10.7,12.3v15.1c0,5.5,0.7,7.4,4.6,9v0.7H314.1z"/>
		<g>
			<path d="M267.7,102.5v-0.7c3.8-1.6,4.6-3.5,4.6-9V78.5c0-6.3-0.7-7.8-5.3-9.7v-0.7c5.1-0.4,11-1.5,15-2.8h0.3v27.5
				c0,5.5,0.7,7.4,4.6,9v0.7H267.7z"/>
			<path d="M277.3,61.7c-2.7,0-5-2.3-5-5s2.3-5,5-5c2.8,0,5.1,2.3,5.1,5S280.1,61.7,277.3,61.7z"/>
		</g>
		<path d="M261.2,74.5l2.2-8.8c-0.8-0.2-1.7-0.3-2.6-0.3c-4.6,0-10,2.5-12.4,4.9v-4.9h-0.3c-4,1.3-9.7,2.5-14.9,2.8v0.7
			c4.6,1.8,5.3,3.4,5.3,9.7v14.3c0,5.5-0.7,7.4-4.6,9v0.7h19.1v-0.7c-3.8-1.6-4.6-3.5-4.6-9V72.1c1.6-0.9,4.1-1.6,6.2-1.6
			c2.7,0,5.2,1.4,6.3,4.1L261.2,74.5z"/>
		<g>
			<path d="M535.2,100.5c-3.3,1.7-9.7,3.1-15.9,3.1c-16.3,0-29.8-9.2-29.8-25c0-17,15.6-26.1,29.8-26.1c5.8,0,12,1.5,15.2,2.9v11.1
				h-0.7c-4.1-7.7-9.1-11.2-15.5-11.2c-9.7,0-17.5,7.7-17.5,22.5c0,14.9,8,23,18.7,23c6.3,0,11.4-2.9,15.9-11.9h0.7L535.2,100.5z"/>
		</g>
		<path d="M561.7,103.4c-10.5,0-19.5-8.3-19.5-19c0-11.3,9.4-19,19.5-19c10.2,0,19.6,7.7,19.6,19
			C581.2,95.1,572.2,103.4,561.7,103.4z M570.4,84.4c0-9.5-3-16.9-8.7-16.9s-8.7,7.4-8.7,16.9c0,8.3,2.3,16.9,8.7,16.9
			C568.2,101.2,570.4,92.7,570.4,84.4z"/>
		<path d="M416.1,93.3c-2.1,3.4-7,10-15.8,10c-10.3,0-16.5-7.5-16.5-18.2c0-11,8-19.8,17.5-19.8c8.3,0,14.3,4.6,14.3,14.4v2.9h-21.4
			c0,9.7,5.7,13.4,12.1,13.4c3.9,0,7.6-2,9.3-3.3L416.1,93.3z M406.7,80c0-8-1.6-12.4-6-12.4c-4.1,0-6.6,6.3-6.6,13.6L406.7,80z"/>
		<path d="M445.2,102.5v-0.7c3.8-1.6,4.6-3.5,4.6-9V62c0-6.3-0.7-7.8-5.3-9.7v-0.7c5.1-0.4,11.3-1.5,15.3-2.8h0.3v44
			c0,5.5,0.7,7.4,4.6,9v0.7H445.2z"/>
		<path fill="none" d="M687.7,88.1c4.1,0,5.2-4.6,5.2-10.3c0-5.5-1.4-10.2-5.2-10.2c-3.9,0-5.3,4.7-5.3,10.2
			C682.4,83.4,683.5,88.1,687.7,88.1z"/>
		<path d="M360.5,102.5v-0.7c3.8-1.6,4.6-3.5,4.6-9V77.3c0-4.6-3.3-6.8-6.8-6.8c-2.1,0-4.6,0.8-6.2,1.6v20.8c0,5.5,0.7,7.4,4.6,9
			v0.7h-19.1v-0.7c3.8-1.6,4.6-3.5,4.6-9V78.5c0-6.3-0.7-7.8-5.3-9.7v-0.7c5.1-0.4,10.9-1.5,14.9-2.8h0.3v4.9
			c2.3-2.3,7.8-4.9,12.4-4.9c5.6,0,10.7,3.1,10.7,12.3v15.1c0,5.5,0.7,7.4,4.6,9v0.7H360.5z"/>
		<path d="M665.5,93.3c-2.1,3.4-7,10-15.8,10c-10.3,0-16.5-7.5-16.5-18.2c0-11,8-19.8,17.5-19.8c8.3,0,14.3,4.6,14.3,14.4v2.9h-21.4
			c0,9.7,5.7,13.4,12.1,13.4c3.9,0,7.6-2,9.3-3.3L665.5,93.3z M656.2,80c0-8-1.6-12.4-6-12.4c-4.1,0-6.6,6.3-6.6,13.6L656.2,80z"/>
		<path d="M742.1,93.3c-2.1,3.4-7,10-15.8,10c-10.3,0-16.5-7.5-16.5-18.2c0-11,8-19.8,17.5-19.8c8.3,0,14.3,4.6,14.3,14.4v2.9h-21.4
			c0,9.7,5.7,13.4,12.1,13.4c3.9,0,7.6-2,9.3-3.3L742.1,93.3z M732.8,80c0-8-1.6-12.4-6-12.4c-4.1,0-6.6,6.3-6.6,13.6L732.8,80z"/>
		<path d="M585.1,102.5v-0.7c3.8-1.6,4.6-3.5,4.6-9V62c0-6.3-0.7-7.8-5.3-9.7v-0.7c5.1-0.4,11.3-1.5,15.3-2.8h0.3v44
			c0,5.5,0.7,7.4,4.6,9v0.7H585.1z"/>
		<path d="M609.7,102.5v-0.7c3.8-1.6,4.6-3.5,4.6-9V62c0-6.3-0.7-7.8-5.3-9.7v-0.7c5.1-0.4,11.3-1.5,15.3-2.8h0.3v44
			c0,5.5,0.7,7.4,4.6,9v0.7H609.7z"/>
		<path d="M694.5,96.2l-10.4-0.5l-0.5,0c-3-0.2-4.2-1.3-4.2-2.7c0-0.4,0.1-0.9,0.4-1.3c0.4-0.8,1.1-1.6,2-2.2
			c1.9,0.5,3.8,0.8,5.8,0.8c8.3,0,15.1-4.7,15.1-12.5c0-1.6-0.4-3.1-1-4.4c1.1-0.2,2-0.3,2.4-0.5c1.4-0.7,2.4-1.8,2.4-2.8l0-4.6
			h-0.3c-0.5,0.5-1.1,0.9-1.8,1.3c-0.8,0.4-2.7,0.6-4.7,0.9c-1.1,0.1-2.2,0.3-3.1,0.4c-1.1-0.7-1.9-1-1.9-1c-2.3-1-4.8-1.6-7.1-1.6
			c-8.7,0-15.2,4.8-15.2,12.7c0,5.7,3.5,9.2,8,10.9c-3.1,1.9-5.6,5-6.1,8.2c-0.1,0.4-0.1,0.7-0.1,1.1c0,2.2,1,4.3,3.8,5.6
			c0.1,0,0.6,0.3,1.8,0.6c0.7,0.1,1.5,0.2,2.4,0.3l9.4,0.5c0.3,0,0.6,0,0.9,0c5.3,0.3,7.8,1,7.8,4.2c0,4.5-5.9,8.5-12.5,8.5
			c-7.7,0-11.3-3.6-11.3-7.6c0-1.6,0.8-3.4,2-4.7l-0.1-0.2c-9.8,0.1-9.7,5.3-9.7,6.1c0,4.7,8.6,8.2,16.8,8.2
			c9.2,0,20.2-4.6,20.8-13.3c0-0.2,0-0.5,0-0.7C706.5,98.9,701.9,96.5,694.5,96.2z M687.7,67.5c3.8,0,5.2,4.7,5.2,10.2
			c0,5.7-1.1,10.3-5.2,10.3c-4.2,0-5.3-4.7-5.3-10.3C682.4,72.2,683.7,67.5,687.7,67.5z"/>
	</g>
</g>
</svg>
